<?xml version="1.0" standalone="no"?>
<!DOCTYPE svg PUBLIC "-//W3C//DTD SVG 20010904//EN" "http://www.w3.org/TR/2001/REC-SVG-20010904/DTD/svg10.dtd">
<svg version="1.0" xmlns="http://www.w3.org/2000/svg"
 width="1836.000000pt" height="750.000000pt" viewBox="0 0 1836.000000 750.000000"
 preserveAspectRatio="xMidYMid meet">

<g transform="translate(0.000000,750.000000) scale(0.100000,-0.100000)"
fill="#0096d7" stroke="none">
<path d="M12715 6703 c-16 -177 -84 -363 -178 -490 -114 -153 -306 -248 -539
-268 l-77 -7 -13 -56 c-18 -78 -18 -563 0 -692 128 -912 562 -1784 1296 -2607
145 -163 464 -483 481 -483 15 0 399 390 521 530 715 820 1130 1668 1250 2555
23 165 24 596 3 690 l-14 60 -65 8 c-275 33 -442 119 -565 292 -86 120 -147
297 -161 466 l-7 79 -962 0 -963 0 -7 -77z m1580 -390 c40 -270 289 -531 630
-663 33 -13 66 -30 74 -39 21 -26 8 -323 -23 -502 -126 -731 -480 -1447 -1027
-2079 -65 -74 -153 -170 -196 -213 l-80 -78 -115 123 c-687 737 -1107 1582
-1203 2419 -8 75 -9 300 -1 326 4 12 22 25 47 32 130 39 321 153 427 255 108
103 208 275 227 391 4 22 9 48 12 58 4 16 42 17 613 17 l608 0 7 -47z"/>
<path d="M13490 6025 c-309 -62 -584 -271 -723 -550 -32 -65 -73 -188 -88
-267 -18 -88 -15 -297 4 -384 71 -318 267 -570 552 -709 169 -83 245 -99 450
-99 142 0 183 4 247 22 186 51 333 135 464 266 186 187 288 415 301 676 24
499 -319 939 -812 1041 -106 22 -296 24 -395 4z m160 -135 l0 -80 -43 0 c-110
0 -305 -78 -410 -164 l-54 -44 -57 57 -57 58 73 55 c99 75 167 111 274 147 94
32 171 48 237 50 l37 1 0 -80z m278 49 c42 -11 109 -36 149 -54 75 -35 207
-121 239 -156 17 -19 17 -21 -34 -72 -63 -63 -72 -60 -122 36 -19 37 -38 67
-42 67 -5 0 -8 -16 -8 -35 l0 -35 -52 29 c-73 41 -193 79 -275 88 l-68 8 -3
79 -3 79 71 -7 c39 -4 106 -16 148 -27z m-278 -254 l0 -65 -32 0 c-77 0 -205
-50 -293 -114 l-50 -36 -42 42 c-24 23 -43 45 -43 50 0 4 29 28 64 53 110 78
252 132 354 134 l42 1 0 -65z m212 46 c74 -19 176 -65 229 -102 20 -14 28 -30
33 -70 9 -70 -7 -90 -43 -55 -15 14 -42 29 -61 32 -19 4 -44 12 -55 19 -39 23
-140 56 -195 63 l-55 7 -3 63 -3 62 39 0 c21 0 73 -9 114 -19z m-813 -115 l52
-53 -50 -66 c-83 -110 -138 -250 -156 -399 l-6 -48 -75 0 -74 0 0 54 c0 114
73 328 151 443 39 57 92 123 99 123 3 0 29 -24 59 -54z m1387 -20 c100 -130
171 -314 188 -483 l6 -63 -80 0 -80 0 0 38 c0 61 -38 199 -75 275 -19 39 -35
72 -35 75 0 2 9 0 20 -3 12 -4 28 -1 36 5 12 11 3 18 -51 45 -36 18 -74 44
-85 57 l-19 23 52 53 c28 29 56 51 62 49 5 -2 33 -34 61 -71z m-786 -96 c0
-51 -3 -60 -18 -60 -39 0 -123 -32 -173 -66 l-52 -35 -43 42 -44 43 48 34 c57
41 111 67 183 86 97 26 99 25 99 -44z m159 45 c68 -16 156 -59 206 -99 l30
-25 -37 -37 -37 -38 -23 21 c-13 12 -41 27 -63 32 -22 6 -70 19 -107 28 l-68
18 0 58 c0 66 -1 65 99 42z m-579 -118 c0 -5 -12 -23 -26 -40 -54 -64 -105
-188 -119 -289 l-7 -48 -64 0 -64 0 6 48 c16 131 71 272 146 371 l40 53 44
-43 c24 -24 44 -47 44 -52z m1047 21 c66 -93 116 -223 129 -337 l7 -61 -64 0
-64 0 -13 76 c-6 42 -23 101 -37 132 -30 65 -29 62 -9 62 11 0 0 18 -35 54
-28 30 -51 58 -51 62 0 21 46 54 75 54 26 0 37 -8 62 -42z m-491 -69 c24 -6
44 -12 44 -14 0 -1 -13 -32 -30 -68 -18 -40 -30 -83 -30 -109 0 -39 -28 -88
-52 -88 -10 0 -11 274 -1 283 9 9 17 9 69 -4z m-434 -97 c-30 -41 -75 -147
-80 -188 l-5 -44 -58 0 c-58 0 -59 1 -59 28 0 73 52 208 106 271 l27 33 41
-41 c35 -36 39 -43 28 -59z m774 42 c58 -88 113 -274 80 -274 -22 0 -114 104
-160 180 l-45 75 37 38 c20 20 39 37 43 37 4 0 24 -25 45 -56z m-626 -1 c-5
-16 -10 -36 -12 -46 -3 -17 -5 -16 -26 6 l-23 24 33 22 c18 11 34 21 35 21 1
0 -2 -12 -7 -27z m-65 -93 c22 -23 26 -33 17 -42 -16 -16 -15 -43 3 -58 13
-10 15 -9 15 12 0 14 3 28 7 31 10 11 43 -24 43 -47 0 -11 12 -33 27 -48 l27
-28 -127 0 -127 0 0 29 c0 49 59 180 81 181 3 0 18 -14 34 -30z m198 -2 c13
-2 17 -12 17 -43 l0 -40 -19 24 c-14 18 -24 22 -43 18 -19 -5 -31 0 -54 24
l-29 31 55 -6 c30 -3 63 -7 73 -8z m147 -168 c0 -5 -4 -10 -10 -10 -5 0 -10 5
-10 10 0 6 5 10 10 10 6 0 10 -4 10 -10z m-885 -107 c25 -165 78 -298 161
-406 24 -31 44 -60 44 -64 0 -12 -93 -103 -105 -103 -19 0 -123 148 -165 234
-47 99 -78 207 -87 304 l-6 72 76 0 76 0 6 -37z m190 -5 c4 -24 16 -72 27
-107 l20 -63 -31 -32 -31 -32 27 -25 c53 -48 86 -69 109 -69 13 0 24 -3 24 -7
0 -10 -72 -83 -82 -83 -11 0 -92 118 -122 177 -28 56 -61 172 -69 241 l-5 42
63 0 63 0 7 -42z m187 12 c4 -26 1 -30 -19 -30 -36 0 -75 -29 -68 -50 3 -10 2
-21 -3 -24 -9 -5 -32 78 -32 115 0 17 7 19 59 19 58 0 59 -1 63 -30z m243 -70
c-55 -55 -105 -100 -112 -100 -16 0 -83 137 -83 171 l0 29 147 0 148 0 -100
-100z m692 44 c-6 -58 -68 -204 -86 -204 -14 0 -50 49 -58 78 -8 32 25 143 50
165 11 10 35 17 60 17 l40 0 -6 -56z m198 4 c-8 -66 -30 -148 -57 -210 -16
-37 -26 -48 -43 -48 -31 0 -49 -25 -49 -70 -1 -22 -7 -45 -13 -51 -15 -15 -13
-19 -41 62 l-23 66 26 45 c33 59 63 147 71 209 l7 49 64 0 65 0 -7 -52z m219
0 c-18 -168 -90 -353 -190 -485 -30 -40 -58 -73 -62 -73 -4 0 -32 24 -61 54
l-54 55 66 65 c43 42 77 66 94 68 l28 3 -27 27 -26 27 25 61 c26 65 53 177 53
223 l0 27 80 0 79 0 -5 -52z m-974 -134 l0 -147 -37 6 c-48 8 -163 64 -163 80
0 9 188 207 197 207 2 0 3 -66 3 -146z m104 94 c-3 -5 -3 -16 1 -26 5 -14 8
-14 15 -2 7 11 11 11 24 1 9 -8 16 -16 16 -20 0 -3 -22 -31 -50 -61 l-50 -55
0 109 0 109 25 -23 c13 -12 22 -27 19 -32z m-261 -242 c26 -14 73 -30 102 -37
l55 -12 0 -59 0 -59 -47 7 c-88 12 -244 85 -268 124 -11 19 24 49 64 53 20 2
38 4 41 5 3 1 27 -9 53 -22z m-197 -87 c29 -47 240 -139 320 -139 l34 0 0 -66
0 -67 -60 6 c-118 13 -280 82 -375 162 l-30 24 45 46 c47 48 55 52 66 34z
m536 -37 c61 4 46 -10 -29 -28 -89 -21 -93 -20 -93 25 l0 39 38 -20 c25 -13
52 -18 84 -16z m283 -39 c19 -9 35 -20 35 -23 0 -13 -92 -72 -163 -105 -74
-34 -192 -65 -246 -65 l-31 0 0 65 0 65 33 0 c47 0 140 26 195 54 56 30 126
33 177 9z m-913 -94 c103 -81 305 -159 412 -159 l36 0 0 -80 0 -80 -32 0 c-55
0 -209 36 -283 65 -108 43 -294 163 -295 190 0 11 91 105 102 105 5 0 32 -18
60 -41z m1077 -13 l53 -53 -56 -44 c-151 -118 -317 -187 -498 -205 l-68 -7 0
82 0 81 43 0 c109 0 289 69 402 155 33 25 62 45 65 45 3 0 30 -24 59 -54z"/>
<path d="M13805 5880 c-10 -17 12 -37 25 -24 8 8 6 15 -4 23 -10 9 -16 9 -21
1z"/>
<path d="M7280 6409 c-519 -26 -978 -245 -1287 -612 -241 -288 -393 -636 -459
-1057 -26 -163 -26 -606 -1 -768 74 -462 239 -806 509 -1057 321 -299 761
-433 1323 -404 805 42 1346 413 1578 1085 33 95 77 276 91 372 l6 42 -563 0
-563 0 -18 -77 c-9 -43 -37 -119 -61 -169 -75 -155 -192 -260 -340 -307 -93
-29 -289 -31 -380 -3 -229 69 -368 243 -430 535 -27 130 -37 321 -25 474 43
558 268 918 630 1008 71 18 269 18 340 0 215 -53 347 -216 367 -453 l6 -78
543 0 543 0 -4 33 c-20 160 -29 214 -47 292 -30 130 -82 276 -141 389 -269
526 -843 794 -1617 755z"/>
<path d="M4206 6303 c-3 -16 -101 -628 -216 -1361 -133 -844 -218 -1352 -231
-1386 -22 -61 -69 -114 -125 -142 -59 -29 -214 -27 -271 3 -54 29 -100 86
-118 147 -27 89 -20 177 41 554 l7 42 -515 0 -515 0 -7 -37 c-29 -167 -38
-268 -43 -463 -4 -185 -2 -241 11 -313 37 -193 115 -351 242 -486 244 -260
641 -379 1168 -350 713 39 1118 364 1275 1024 19 79 441 2741 441 2780 0 13
-67 15 -569 15 l-569 0 -6 -27z"/>
<path d="M9640 4463 l-285 -1868 569 -3 c313 -1 571 0 573 2 3 3 130 827 284
1833 153 1005 281 1845 285 1866 l6 37 -574 0 -573 0 -285 -1867z"/>
<path d="M15440 2945 c0 -12 14 -15 65 -15 l65 0 0 -170 0 -170 25 0 25 0 0
170 0 170 60 0 c47 0 60 3 60 15 0 13 -23 15 -150 15 -127 0 -150 -2 -150 -15z"/>
<path d="M15790 2775 c0 -178 1 -185 20 -185 19 0 20 7 20 157 0 87 4 153 9
148 4 -6 32 -76 62 -157 72 -198 76 -198 149 3 30 83 58 153 62 155 5 3 8 -65
8 -150 0 -149 1 -156 20 -156 19 0 20 7 20 185 l0 185 -33 0 -33 0 -53 -143
c-29 -79 -56 -149 -61 -156 -7 -13 -18 12 -96 221 -28 75 -30 78 -61 78 l-33
0 0 -185z"/>
<path d="M6613 1799 c-18 -18 -19 -1099 -1 -1117 15 -15 379 -16 517 -2 213
23 319 123 329 311 6 128 -31 216 -115 268 l-39 25 37 33 c55 49 79 109 79
192 0 133 -78 235 -213 277 -71 22 -575 33 -594 13z m553 -198 c50 -33 69
-116 42 -176 -24 -53 -70 -65 -248 -65 l-160 0 0 131 0 131 173 -4 c127 -2
178 -7 193 -17z m27 -454 c96 -63 88 -219 -13 -269 -29 -15 -63 -18 -207 -18
l-173 0 0 156 0 156 183 -4 c156 -3 187 -6 210 -21z"/>
<path d="M7642 1798 c-7 -7 -12 -42 -12 -88 0 -46 5 -81 12 -88 7 -7 40 -12
78 -12 38 0 71 5 78 12 7 7 12 42 12 88 0 46 -5 81 -12 88 -7 7 -40 12 -78 12
-38 0 -71 -5 -78 -12z"/>
<path d="M9498 1729 l-68 -41 0 -89 0 -89 -38 0 c-53 0 -62 -13 -62 -95 0 -82
9 -95 61 -95 l37 0 4 -267 c4 -296 9 -321 67 -362 40 -29 124 -42 201 -31 34
5 63 10 65 12 2 2 -1 28 -6 58 -18 104 -13 98 -75 106 -46 5 -57 10 -65 31 -5
13 -9 121 -9 239 l0 214 53 0 c29 0 58 5 65 12 7 7 12 41 12 83 0 42 -5 76
-12 83 -7 7 -36 12 -65 12 l-52 0 -3 128 c-4 152 -6 154 -110 91z"/>
<path d="M8265 1521 c-38 -9 -68 -25 -85 -46 -12 -14 -14 -13 -24 7 -10 19
-21 23 -70 26 -34 2 -64 -2 -72 -9 -12 -9 -14 -78 -14 -408 0 -295 3 -400 12
-409 16 -16 142 -16 156 1 7 7 12 113 14 277 3 229 6 271 22 307 29 68 90 92
154 59 43 -22 65 -6 90 65 12 35 22 69 22 75 0 15 -84 50 -135 57 -22 2 -53 1
-70 -2z"/>
<path d="M8805 1519 c-100 -11 -190 -59 -232 -123 -39 -57 -59 -124 -45 -146
8 -14 23 -18 124 -33 36 -5 38 -4 56 36 33 73 50 82 163 82 92 0 100 -2 124
-25 13 -14 27 -39 31 -57 6 -30 4 -32 -32 -42 -22 -6 -97 -20 -168 -31 -192
-31 -255 -65 -302 -165 -47 -100 -20 -239 58 -298 58 -44 106 -59 193 -59 97
-1 143 11 216 55 l56 34 19 -36 19 -36 77 -3 c94 -3 106 8 81 79 -13 35 -18
100 -22 319 -6 264 -7 277 -30 324 -49 100 -196 148 -386 125z m220 -526 c-17
-96 -98 -153 -216 -153 -58 0 -72 4 -98 26 -68 57 -26 108 105 130 49 8 109
18 134 23 83 16 83 16 75 -26z"/>
<path d="M10136 1519 c-134 -18 -227 -82 -266 -186 -23 -63 -25 -77 -7 -90 10
-9 159 -36 162 -30 1 1 8 20 16 42 23 62 66 85 156 85 88 0 136 -19 153 -60
27 -64 20 -68 -190 -100 -160 -24 -227 -52 -277 -118 -87 -115 -62 -289 54
-362 104 -66 285 -57 400 21 l43 28 20 -39 20 -40 75 0 c91 0 104 13 79 82
-13 34 -18 101 -23 323 -6 259 -8 283 -28 320 -39 75 -106 112 -226 125 -45 6
-84 9 -87 9 -3 -1 -36 -6 -74 -10z m220 -530 c-9 -58 -37 -93 -98 -123 -55
-28 -143 -35 -192 -16 -38 14 -61 55 -48 85 17 36 56 51 182 70 63 9 117 19
119 21 2 2 13 4 24 4 17 0 19 -5 13 -41z"/>
<path d="M7642 1498 c-17 -17 -17 -799 0 -816 16 -16 140 -16 156 0 17 17 17
799 0 816 -7 7 -40 12 -78 12 -38 0 -71 -5 -78 -12z"/>
</g>
</svg>
